<svg width="37" height="37" viewBox="0 0 37 37" fill="none" xmlns="http://www.w3.org/2000/svg">
<path d="M10.6333 0H26.0333C31.9 0 36.6667 4.76667 36.6667 10.6333V26.0333C36.6667 28.8535 35.5464 31.5581 33.5522 33.5522C31.5581 35.5464 28.8535 36.6667 26.0333 36.6667H10.6333C4.76667 36.6667 0 31.9 0 26.0333V10.6333C0 7.8132 1.12029 5.10857 3.11443 3.11443C5.10857 1.12029 7.8132 0 10.6333 0ZM10.2667 3.66667C8.51624 3.66667 6.8375 4.36202 5.59976 5.59976C4.36202 6.8375 3.66667 8.51624 3.66667 10.2667V26.4C3.66667 30.0483 6.61833 33 10.2667 33H26.4C28.1504 33 29.8292 32.3046 31.0669 31.0669C32.3046 29.8292 33 28.1504 33 26.4V10.2667C33 6.61833 30.0483 3.66667 26.4 3.66667H10.2667ZM27.9583 6.41667C28.5661 6.41667 29.149 6.65811 29.5788 7.08788C30.0086 7.51765 30.25 8.10055 30.25 8.70833C30.25 9.31612 30.0086 9.89902 29.5788 10.3288C29.149 10.7586 28.5661 11 27.9583 11C27.3505 11 26.7677 10.7586 26.3379 10.3288C25.9081 9.89902 25.6667 9.31612 25.6667 8.70833C25.6667 8.10055 25.9081 7.51765 26.3379 7.08788C26.7677 6.65811 27.3505 6.41667 27.9583 6.41667ZM18.3333 9.16667C20.7645 9.16667 23.0961 10.1324 24.8151 11.8515C26.5342 13.5706 27.5 15.9022 27.5 18.3333C27.5 20.7645 26.5342 23.0961 24.8151 24.8151C23.0961 26.5342 20.7645 27.5 18.3333 27.5C15.9022 27.5 13.5706 26.5342 11.8515 24.8151C10.1324 23.0961 9.16667 20.7645 9.16667 18.3333C9.16667 15.9022 10.1324 13.5706 11.8515 11.8515C13.5706 10.1324 15.9022 9.16667 18.3333 9.16667ZM18.3333 12.8333C16.8746 12.8333 15.4757 13.4128 14.4442 14.4442C13.4128 15.4757 12.8333 16.8746 12.8333 18.3333C12.8333 19.792 13.4128 21.191 14.4442 22.2224C15.4757 23.2539 16.8746 23.8333 18.3333 23.8333C19.792 23.8333 21.191 23.2539 22.2224 22.2224C23.2539 21.191 23.8333 19.792 23.8333 18.3333C23.8333 16.8746 23.2539 15.4757 22.2224 14.4442C21.191 13.4128 19.792 12.8333 18.3333 12.8333Z" fill="#444444"/>
</svg>
