<svg width="36" height="36" viewBox="0 0 36 36" fill="none" xmlns="http://www.w3.org/2000/svg">
<path fill-rule="evenodd" clip-rule="evenodd" d="M17.875 0C8.0025 0 0 8.0025 0 17.875C0 27.7475 8.0025 35.75 17.875 35.75C27.7475 35.75 35.75 27.7475 35.75 17.875C35.75 8.0025 27.7475 0 17.875 0ZM2.75 17.875C2.75101 14.6884 3.75846 11.5835 5.62859 9.00335C7.49873 6.42321 10.136 4.49965 13.1641 3.50714C16.1922 2.51462 19.4564 2.50386 22.491 3.47639C25.5256 4.44892 28.1755 6.35505 30.0626 8.92281C31.9497 11.4906 32.9776 14.5887 32.9996 17.7753C33.0217 20.9618 32.0367 24.0739 30.1852 26.6675C28.3338 29.2611 25.7105 31.2037 22.6896 32.218C19.6688 33.2324 16.4047 33.2667 13.3632 32.3162C14.1386 31.0995 14.7548 29.7883 15.1965 28.4148L16.1425 24.7903C16.5335 25.349 17.058 25.8011 17.6683 26.1052C18.2786 26.4094 18.9553 26.5561 19.6368 26.532C24.2843 26.532 27.5513 22.308 27.5513 17.061C27.5513 12.0212 23.4355 8.2555 18.1573 8.2555C11.5812 8.2555 8.08867 12.6738 8.08867 17.4753C8.08867 19.7175 9.27483 22.4932 11.1797 23.386C11.462 23.5162 11.6472 23.386 11.6912 23.1788C11.7352 22.9717 11.9955 21.9285 12.1147 21.4482C12.1336 21.3724 12.1336 21.2932 12.1148 21.2174C12.0959 21.1417 12.0587 21.0717 12.0065 21.0137C11.2846 20.0009 10.9033 18.7849 10.9175 17.5413C10.9142 16.649 11.0919 15.7652 11.4399 14.9434C11.7879 14.1217 12.2989 13.379 12.9421 12.7604C13.5852 12.1417 14.3471 11.66 15.1818 11.3441C16.0164 11.0283 16.9064 10.8851 17.798 10.923C18.633 10.8741 19.4691 10.9999 20.2528 11.2922C21.0366 11.5845 21.7508 12.037 22.3499 12.6207C22.949 13.2045 23.4198 13.9067 23.7324 14.6826C24.0449 15.4585 24.1923 16.291 24.1652 17.127C24.1652 21.241 22.0752 24.1047 19.3765 24.1047C19.0278 24.1312 18.6779 24.0734 18.3563 23.9362C18.0347 23.799 17.7509 23.5863 17.5288 23.3162C17.3067 23.0461 17.153 22.7266 17.0805 22.3845C17.008 22.0424 17.0189 21.6879 17.1123 21.351C17.2663 20.7093 17.4717 20.0475 17.6697 19.4022C18.0308 18.2325 18.3755 17.1197 18.3755 16.2782C18.413 16.0046 18.391 15.7262 18.311 15.4619C18.231 15.1977 18.0948 14.9538 17.9119 14.747C17.7289 14.5402 17.5035 14.3753 17.251 14.2637C16.9984 14.1521 16.7248 14.0963 16.4487 14.1002C14.9233 14.1002 13.6932 15.6897 13.6932 17.8017C13.6822 18.5478 13.8215 19.2885 14.1075 19.9797L12.3108 27.599C12.0923 29.0391 12.0923 30.5039 12.3108 31.944C11.1265 31.4753 10.0065 30.8581 8.97783 30.107C6.45066 28.2631 4.5532 25.6852 3.54383 22.7242C3.01506 21.1623 2.74687 19.524 2.75 17.875Z" fill="#444444"/>
</svg>
