<svg width="36" height="33" viewBox="0 0 36 33" fill="none" xmlns="http://www.w3.org/2000/svg">
<path d="M33.0957 0.00332652C32.6544 0.036062 32.2213 0.139593 31.8129 0.309951H31.8074C31.4155 0.465326 29.5524 1.24908 26.7199 2.43708L16.5696 6.71195C9.28624 9.7782 2.12662 12.7977 2.12662 12.7977L2.21187 12.7647C2.21187 12.7647 1.71824 12.927 1.20262 13.2803C0.883345 13.4821 0.609062 13.7475 0.396867 14.06C0.143867 14.4312 -0.0596331 14.9991 0.0159919 15.5862C0.139742 16.579 0.783242 17.1743 1.24524 17.503C1.71274 17.8357 2.15824 17.9911 2.15824 17.9911H2.16924L8.88337 20.253C9.18449 21.2196 10.9294 26.9561 11.3487 28.2775C11.5962 29.0667 11.8369 29.5603 12.138 29.9371C12.2819 30.1296 12.4556 30.2905 12.6591 30.4197C12.7648 30.4832 12.8786 30.5323 12.9974 30.5655L12.9286 30.549C12.9492 30.5545 12.9657 30.571 12.9809 30.5765C13.0359 30.5916 13.073 30.5971 13.1431 30.6081C14.206 30.9298 15.0599 30.2698 15.0599 30.2698L15.108 30.2313L19.0721 26.622L25.7161 31.7191L25.8674 31.7837C27.252 32.3915 28.6545 32.0532 29.3956 31.4565C30.1422 30.8556 30.4324 30.087 30.4324 30.087L30.4805 29.9632L35.6147 3.66083C35.7605 3.01183 35.7976 2.40408 35.6367 1.8142C35.4717 1.21679 35.0885 0.703062 34.5629 0.374576C34.1221 0.106451 33.611 -0.0229025 33.0957 0.00332652ZM32.9569 2.82208C32.9514 2.9087 32.9679 2.89908 32.9294 3.06545V3.08058L27.8432 29.1093C27.8212 29.1465 27.7841 29.2276 27.6824 29.3087C27.5751 29.394 27.4899 29.4476 27.043 29.2702L18.9167 23.0401L14.008 27.5143L15.0392 20.9281L28.3162 8.55308C28.8635 8.04433 28.6806 7.93708 28.6806 7.93708C28.7191 7.31283 27.8542 7.7542 27.8542 7.7542L11.1122 18.1258L11.1067 18.0983L3.08224 15.3965V15.391L3.06162 15.3868L3.10287 15.3703L3.14687 15.3483L3.18949 15.3332C3.18949 15.3332 10.3546 12.3137 17.638 9.24745C21.2845 7.71158 24.9585 6.1647 27.7841 4.9712C29.4599 4.26583 31.1374 3.56458 32.8166 2.86745C32.9294 2.82345 32.8757 2.82208 32.9569 2.82208Z" fill="#444444"/>
</svg>
