<svg width="43" height="28" viewBox="0 0 43 28" fill="none" xmlns="http://www.w3.org/2000/svg">
<path fill-rule="evenodd" clip-rule="evenodd" d="M42.4508 22.2097C41.4534 20.2013 40.1392 18.3665 38.5587 16.7757C38.0293 16.1789 37.4758 15.604 36.8995 15.0524L36.8298 14.9845C36.6157 14.777 36.4042 14.5668 36.1955 14.3539C38.3566 11.3488 40.2056 8.13111 41.7138 4.75086L41.7743 4.6152L41.8165 4.4722C42.0163 3.8067 42.2437 2.5417 41.437 1.3977C40.601 0.217029 39.2645 0.00436229 38.368 0.00436229H34.2485C33.3858 -0.0355139 32.5327 0.198812 31.8114 0.673738C31.0901 1.14866 30.5377 1.8398 30.2335 2.64803C29.347 4.75941 28.237 6.76981 26.9225 8.64486V3.8177C26.9225 3.19436 26.8638 2.14936 26.1947 1.26936C25.3953 0.213362 24.2385 0.00436229 23.4355 0.00436229H16.8978C16.0447 -0.0152666 15.2168 0.293958 14.5854 0.867999C13.954 1.44204 13.5676 2.23692 13.5062 3.08803L13.5007 3.17053V3.25303C13.5007 4.1422 13.8527 4.79853 14.135 5.21103C14.2615 5.3962 14.3953 5.56486 14.4815 5.6712L14.4998 5.69503C14.5915 5.8087 14.652 5.88386 14.7125 5.9682C14.8738 6.18453 15.103 6.52186 15.169 7.39086V10.0914C13.8568 7.89369 12.7808 5.56339 11.9588 3.13936L11.9442 3.09903L11.9295 3.06053C11.7058 2.4757 11.3483 1.62503 10.6315 0.976029C9.7955 0.215196 8.8055 0.00436229 7.90533 0.00436229H3.72533C2.81417 0.00436229 1.716 0.21703 0.8965 1.08053C0.0916667 1.9312 0 2.95053 0 3.48953V3.7352L0.0513333 3.97353C1.20682 9.34726 3.59206 14.3801 7.01983 18.6769C8.58608 21.147 10.7126 23.2132 13.2267 24.7078C15.7409 26.2023 18.572 27.0832 21.4903 27.2789L21.5655 27.2844H21.6425C22.9735 27.2844 24.3613 27.1689 25.4045 26.474C26.8107 25.5354 26.9225 24.0962 26.9225 23.3775V21.2912C27.2837 21.5845 27.731 21.9769 28.2792 22.5049C28.9428 23.1685 29.4708 23.7442 29.9237 24.2465L30.1657 24.5142C30.5177 24.9065 30.8642 25.2934 31.1795 25.6105C31.5755 26.0084 32.065 26.4465 32.6773 26.771C33.3428 27.1212 34.0413 27.2807 34.782 27.2807H38.9638C39.8457 27.2807 41.1088 27.0717 41.998 26.0414C42.966 24.9194 42.8927 23.5425 42.5883 22.5544L42.5333 22.3765L42.4508 22.2097ZM31.9642 22.404C31.3961 21.7688 30.811 21.1489 30.2097 20.545L30.2042 20.5395C27.7163 18.1415 26.5558 17.7254 25.7345 17.7254C25.2963 17.7254 24.8142 17.773 24.5007 18.1654C24.3612 18.3535 24.2688 18.5722 24.2312 18.8034C24.1874 19.0724 24.1678 19.3448 24.1725 19.6174V23.3775C24.1725 23.845 24.0955 24.0412 23.8792 24.1842C23.5913 24.3767 22.9772 24.5325 21.659 24.5325C19.1551 24.3622 16.7273 23.5999 14.5753 22.3085C12.4234 21.017 10.6086 19.2333 9.28033 17.1039L9.26567 17.08L9.24733 17.058C6.054 13.0866 3.82946 8.42596 2.75 3.44553C2.75733 3.2072 2.80867 3.06236 2.893 2.97436C2.97917 2.8827 3.19 2.75436 3.72533 2.75436H7.90533C8.36917 2.75436 8.61117 2.85703 8.78533 3.01286C8.97967 3.19253 9.152 3.49503 9.35733 4.03403C10.384 7.0517 11.77 9.87503 13.0845 11.9504C13.7408 12.9862 14.3862 13.8497 14.9692 14.4602C15.2607 14.7645 15.5448 15.0175 15.818 15.1972C16.0802 15.3695 16.379 15.507 16.687 15.507C16.8483 15.507 17.0372 15.4887 17.2187 15.4099C17.4149 15.3236 17.5764 15.1738 17.677 14.9845C17.8658 14.6399 17.919 14.132 17.919 13.4665V7.2827C17.8218 5.78303 17.369 4.93786 16.929 4.33836C16.8397 4.21856 16.7481 4.10059 16.654 3.98453L16.6302 3.9552C16.5524 3.85995 16.4778 3.76211 16.4065 3.66186C16.3172 3.54919 16.263 3.41275 16.2507 3.26953C16.265 3.12385 16.3346 2.98917 16.445 2.89306C16.5554 2.79695 16.6984 2.74668 16.8447 2.75253H23.4355C23.8132 2.75253 23.9397 2.8442 24.0038 2.93036C24.0955 3.04953 24.1725 3.29703 24.1725 3.8177V12.119C24.1725 13.1054 24.6272 13.7727 25.2872 13.7727C26.0462 13.7727 26.5943 13.3125 27.5513 12.3555L27.5678 12.3372L27.5825 12.3207C29.7295 9.70336 31.4835 6.78704 32.7892 3.6637L32.7965 3.6417C32.8941 3.36541 33.0797 3.12878 33.3248 2.96816C33.5699 2.80753 33.8609 2.73178 34.1532 2.75253H38.3698C38.9418 2.75253 39.1288 2.8992 39.1912 2.98536C39.2553 3.07703 39.3012 3.2732 39.1912 3.6582C37.6855 7.02495 35.8238 10.2209 33.638 13.1915L33.6233 13.2135C33.4125 13.538 33.1797 13.8974 33.1467 14.308C33.11 14.7517 33.3007 15.1532 33.6362 15.5859C33.88 15.9452 34.3842 16.4384 34.8957 16.9389L34.9433 16.9865C35.4787 17.5109 36.0598 18.0792 36.5255 18.6292L36.5383 18.642L36.5512 18.6567C37.9396 20.0419 39.0942 21.643 39.9703 23.3977C40.1097 23.8744 40.0253 24.12 39.9153 24.2465C39.7888 24.3932 39.5047 24.5307 38.9657 24.5307H34.782C34.4968 24.5385 34.2144 24.4721 33.9625 24.3382C33.654 24.1575 33.3736 23.9327 33.1302 23.6709C32.868 23.4087 32.5838 23.0915 32.2355 22.7047L31.9642 22.404Z" fill="#444444"/>
</svg>
